<svg width="57" height="56" viewBox="0 0 57 56" fill="none" xmlns="http://www.w3.org/2000/svg">
    <path d="M21.7844 37.424L18.1794 44.8659L15.6113 36.9734L7.5 35.8534L14.1281 30.9621L12.7719 22.9121L19.3869 27.6984L24.0944 25.2746L26.7106 23.9271L26.0194 25.9921L24.1163 31.6927L30.0531 37.494L21.7844 37.424Z" fill="#FCC21B"/>
    <path d="M37.3639 13.6334C35.8458 14.5215 34.367 15.4796 32.9102 16.4728C33.422 16.7571 33.8377 17.234 34.0827 17.9821C34.157 18.1965 34.1789 18.4196 34.1789 18.6471C35.0277 18.0128 35.8764 17.3784 36.747 16.779C38.2608 15.7378 39.8052 14.7403 41.3758 13.7821C43.2264 12.6578 45.1077 11.5903 47.0239 10.5796C48.0827 10.0196 49.1502 9.47714 50.2264 8.94776C50.502 8.81651 50.7777 8.68089 51.0533 8.54964C51.1845 8.48839 51.3114 8.41401 51.447 8.36151C51.6133 8.30026 52.9564 7.75776 52.5452 7.46901C52.3527 7.32901 52.0595 7.40339 51.8452 7.43401C51.5783 7.47776 51.3202 7.55651 51.0708 7.62651C50.5895 7.75776 50.1083 7.90214 49.6314 8.05526C48.5202 8.40964 47.4264 8.80339 46.3414 9.23214C44.937 9.78339 43.5589 10.3915 42.1983 11.0478C40.5577 11.8484 38.9433 12.7103 37.3639 13.6334Z" fill="#40C0E7"/>
    <path d="M27.8614 30.7861L29.9133 24.6348L31.1121 21.0473L31.6196 19.5205C31.7377 19.1573 31.6283 18.7636 31.3439 18.5142C31.0552 18.2648 30.6483 18.2211 30.3071 18.3917L29.9789 18.558L23.3202 21.9923L19.6758 23.8736L10.0683 16.9217C9.76644 16.703 9.35081 16.6855 9.02706 16.8867C8.70769 17.0836 8.53706 17.4642 8.59831 17.8361L10.5714 29.5261L0.946436 36.6267C0.640186 36.8542 0.500186 37.2392 0.596436 37.6067C0.688311 37.9786 0.994561 38.2498 1.37519 38.3023L13.1396 39.9298L16.8714 51.388C16.9896 51.7467 17.3177 52.0048 17.6939 52.0311C18.0746 52.0573 18.4333 51.8473 18.5996 51.5061L23.8233 40.7086L35.8152 40.8092C36.2002 40.8092 36.5414 40.5817 36.6858 40.2317C36.8302 39.8817 36.7471 39.4748 36.4802 39.208L27.8614 30.7861ZM21.7846 37.423L18.1839 44.8648L15.6114 36.9723L7.50019 35.8523L14.1283 30.9611L12.7677 22.9111L19.3871 27.6973L24.0946 25.2692L26.7064 23.9217L26.0152 25.9911L24.1121 31.6917L30.0533 37.493L21.7846 37.423Z" fill="white"/>
    <path d="M18.4865 19.2104C18.7009 19.4335 18.8846 19.6698 19.1515 19.836C19.2784 19.9148 19.3878 19.9585 19.4928 19.9717C19.7509 20.0067 19.939 19.8448 20.2015 19.5998C20.7396 19.0967 21.2953 18.6067 21.8553 18.1298C22.7171 17.3948 23.5965 16.686 24.4934 15.9948C25.679 15.0804 26.8865 14.201 28.1203 13.3567C29.634 12.311 31.1784 11.3135 32.749 10.3598C34.5996 9.23542 36.4809 8.17229 38.3928 7.15729C39.4559 6.60167 40.5234 6.05479 41.5996 5.52979C41.8709 5.39417 42.1465 5.26292 42.4221 5.13167C42.5534 5.06604 42.6803 4.99604 42.8159 4.94354C42.9821 4.87792 44.3209 4.33979 43.914 4.05104C43.7215 3.91104 43.4284 3.98542 43.214 4.01604C42.9471 4.05979 42.6934 4.13417 42.4353 4.20854C41.9496 4.33979 41.4728 4.48417 40.9959 4.63729C39.889 4.98729 38.7909 5.38542 37.7059 5.80979C36.3015 6.36542 34.9234 6.97354 33.5628 7.62542C31.9178 8.42167 30.3034 9.28792 28.724 10.2067C26.8821 11.2873 25.084 12.4467 23.3384 13.676C21.8203 14.7435 20.3415 15.8635 18.9021 17.036C18.644 17.246 18.3859 17.4604 18.1234 17.6748C17.8871 17.8717 17.5765 18.0948 17.8084 18.4273C18.014 18.7117 18.2459 18.961 18.4865 19.2104ZM56.3521 13.8948C56.1509 13.7635 55.8621 13.851 55.6521 13.8948C55.3896 13.9473 55.1403 14.0392 54.8865 14.1267C54.4096 14.2842 53.9371 14.4504 53.469 14.6254C52.3796 15.0323 51.3034 15.4829 50.2403 15.9642C48.8665 16.5854 47.519 17.2635 46.1978 17.9854C44.5921 18.8604 43.0215 19.8054 41.4903 20.8029C39.7053 21.971 37.9684 23.2223 36.284 24.5348C34.8231 25.6771 33.4018 26.8692 32.0228 28.1092C31.769 28.3323 31.524 28.5598 31.2746 28.7873C31.0471 28.9973 30.7496 29.2335 30.999 29.5529C31.209 29.8242 31.4584 30.0648 31.7078 30.2967C31.9353 30.511 32.1234 30.7342 32.4034 30.8873C32.5303 30.9617 32.644 30.9967 32.7446 31.0098C33.0028 31.0317 33.1865 30.8567 33.4359 30.6029C33.9478 30.0735 34.4771 29.5573 35.0153 29.0498C35.8378 28.271 36.6865 27.5185 37.544 26.7879C38.6859 25.8167 39.8496 24.8804 41.0353 23.9704C42.4965 22.8548 43.9928 21.7785 45.5109 20.7504C47.3003 19.5342 49.129 18.3748 50.9928 17.2723C52.0209 16.6598 53.0621 16.0692 54.1121 15.4873C54.379 15.3429 54.6503 15.1942 54.9171 15.0498C55.0396 14.9798 55.1709 14.901 55.2978 14.8442C55.4596 14.7698 56.7765 14.166 56.3521 13.8948Z" fill="#40C0E7"/>
</svg>
