<svg width="54" height="53" viewBox="0 0 54 53" fill="none" xmlns="http://www.w3.org/2000/svg">
    <path d="M31.9688 16.5625H43.5625V19.875H31.9688V16.5625ZM31.9688 24.8438H43.5625V28.1562H31.9688V24.8438ZM31.9688 33.125H43.5625V36.4375H31.9688V33.125ZM10.4375 16.5625H22.0312V19.875H10.4375V16.5625ZM10.4375 24.8438H22.0312V28.1562H10.4375V24.8438ZM10.4375 33.125H22.0312V36.4375H10.4375V33.125Z" fill="black"/>
    <path d="M46.875 8.28125H7.125C6.24647 8.28125 5.40392 8.63024 4.78271 9.25146C4.16149 9.87267 3.8125 10.7152 3.8125 11.5938V41.4062C3.8125 42.2848 4.16149 43.1273 4.78271 43.7485C5.40392 44.3698 6.24647 44.7188 7.125 44.7188H46.875C47.7535 44.7188 48.5961 44.3698 49.2173 43.7485C49.8385 43.1273 50.1875 42.2848 50.1875 41.4062V11.5938C50.1875 10.7152 49.8385 9.87267 49.2173 9.25146C48.5961 8.63024 47.7535 8.28125 46.875 8.28125ZM7.125 11.5938H25.3438V41.4062H7.125V11.5938ZM28.6562 41.4062V11.5938H46.875V41.4062H28.6562Z" fill="#B1B1B1"/>
</svg>
