<svg width="125" height="55" viewBox="0 0 125 55" fill="none" xmlns="http://www.w3.org/2000/svg">
    <g clip-path="url(#clip0_193_230)">
        <path fill-rule="evenodd" clip-rule="evenodd"
              d="M0.968424 54.0319C2.25966 55.3225 4.35315 55.3225 5.64439 54.0319L16.6592 43.0215L27.674 54.0319C28.9653 55.3225 31.0588 55.3225 32.35 54.0319C33.6413 52.7411 33.6413 50.6486 32.35 49.3578L16.6592 33.6733L0.968424 49.3578C-0.322808 50.6486 -0.322808 52.7411 0.968424 54.0319Z"
              fill="#D3212C"/>
        <path fill-rule="evenodd" clip-rule="evenodd"
              d="M53.8173 0.969572C55.108 2.26234 55.108 4.35831 53.8173 5.65108L16.6517 42.8776L0.967988 27.1682C-0.322663 25.8754 -0.322663 23.7795 0.967988 22.4867C2.25863 21.1939 4.35119 21.1939 5.64184 22.4867L16.6517 33.5145L49.1436 0.969572C50.434 -0.323191 52.5266 -0.323191 53.8173 0.969572Z"
              fill="#069C56"/>
        <path d="M43.5586 41.3059V25.5917H53.7777V27.9039H46.4208V32.2141H53.1069V34.459H46.4208V38.9937H53.7777V41.3059H43.5586ZM55.7261 41.3059L60.6232 33.359L55.659 25.5917H58.9461L62.4568 31.0692L65.6769 25.5917H68.8969L63.9998 33.4937L69.0087 41.3059H65.7216L62.1662 35.761L58.9461 41.3059H55.7261ZM70.22 41.3059L75.9445 25.5917H79.1646L84.8891 41.3059H81.8479L80.5957 37.6692H74.4911L73.2165 41.3059H70.22ZM75.2737 35.4243H79.8131L77.5322 28.8917L75.2737 35.4243ZM86.9056 41.3059V25.5917H90.3046L95.2912 35.559L100.211 25.5917H103.61V41.3059H100.747V30.4631L96.3869 39.061H94.1284L89.7679 30.4631V41.3059H86.9056ZM111.991 41.5753C110.843 41.5753 109.829 41.3807 108.95 40.9917C108.07 40.5876 107.377 40.0189 106.87 39.2855C106.363 38.5373 106.102 37.6317 106.087 36.5692H109.106C109.136 37.3026 109.397 37.9235 109.889 38.4325C110.396 38.9263 111.089 39.1733 111.968 39.1733C112.729 39.1733 113.333 38.9937 113.78 38.6345C114.227 38.2603 114.451 37.7664 114.451 37.1529C114.451 36.5093 114.249 36.008 113.847 35.6488C113.459 35.2896 112.937 34.9978 112.282 34.7733C111.626 34.5488 110.925 34.3093 110.18 34.0549C108.972 33.6358 108.048 33.097 107.407 32.4386C106.781 31.7802 106.468 30.9047 106.468 29.8121C106.453 28.8842 106.669 28.0909 107.116 27.4325C107.578 26.759 108.204 26.2427 108.994 25.8835C109.784 25.5093 110.694 25.3223 111.722 25.3223C112.766 25.3223 113.683 25.5093 114.473 25.8835C115.278 26.2577 115.904 26.7814 116.351 27.4549C116.814 28.1284 117.059 28.9291 117.089 29.857H114.026C114.011 29.3031 113.795 28.8169 113.377 28.3978C112.975 27.9638 112.408 27.7468 111.678 27.7468C111.052 27.7317 110.522 27.8889 110.09 28.2182C109.673 28.5325 109.464 28.9965 109.464 29.61C109.464 30.1338 109.628 30.5529 109.956 30.8672C110.284 31.1664 110.731 31.421 111.298 31.6304C111.864 31.8399 112.513 32.0644 113.243 32.3039C114.018 32.5733 114.726 32.8876 115.367 33.2468C116.009 33.6059 116.523 34.0848 116.91 34.6835C117.298 35.2672 117.492 36.023 117.492 36.9508C117.492 37.774 117.283 38.5373 116.866 39.2406C116.448 39.944 115.83 40.5128 115.01 40.9468C114.19 41.3659 113.183 41.5753 111.991 41.5753Z"
              fill="#069C56"/>
        <path d="M42.5273 52.0818V47.0532H43.4433L45.7975 50.5948V47.0532H46.7134V52.0818H45.7975L43.4433 48.5474V52.0818H42.5273ZM60.7078 52.0818V47.0532H63.9779V47.7931H61.6237V49.1724H63.7633V49.8908H61.6237V51.3419H63.9779V52.0818H60.7078ZM77.8679 52.0818V47.0532H79.7212C80.1219 47.0532 80.4533 47.1203 80.7159 47.2544C80.9781 47.3884 81.1738 47.5729 81.3026 47.8075C81.4314 48.0421 81.4958 48.3056 81.4958 48.5977C81.4958 48.8754 81.4337 49.1318 81.3098 49.3664C81.1857 49.5962 80.9925 49.783 80.7302 49.9267C80.4676 50.0656 80.1313 50.135 79.7212 50.135H78.7838V52.0818H77.8679ZM78.7838 49.3879H79.664C79.9835 49.3879 80.2125 49.3185 80.3509 49.1796C80.494 49.0359 80.5656 48.842 80.5656 48.5977C80.5656 48.3488 80.494 48.1548 80.3509 48.0158C80.2125 47.8722 79.9835 47.8003 79.664 47.8003H78.7838V49.3879ZM94.3775 52.0818L96.2094 47.0532H97.2398L99.0716 52.0818H98.0985L97.6977 50.918H95.7443L95.3364 52.0818H94.3775ZM95.9947 50.1997H97.4473L96.7174 48.1092L95.9947 50.1997ZM112.74 52.0818V47.0532H113.656V51.3634H115.874V52.0818H112.74Z"
              fill="#636363"/>
    </g>
    <defs>
        <clipPath id="clip0_193_230">
            <rect width="125" height="55" fill="white"/>
        </clipPath>
    </defs>
</svg>
